<?xml version="1.0" encoding="UTF-8"?><svg id="Laag_1" xmlns="http://www.w3.org/2000/svg" viewBox="0 0 366.22 298.57"><defs><style>.cls-1{fill:none;}.cls-2{fill:#f15d22;}.cls-3,.cls-4{fill:#470858;}.cls-4{stroke:#470858;stroke-miterlimit:10;stroke-width:.36px;}</style></defs><g><path class="cls-2" d="m293.63,27.5c-19.79,0-35.88,16.1-35.88,35.88,0,16.27,10.89,30.04,25.75,34.42l-10.03,22.71,4.57,2.02,10.44-23.64c1.68.24,3.4.37,5.15.37,19.79,0,35.88-16.1,35.88-35.88s-16.1-35.88-35.88-35.88Zm0,66.77c-2.25,0-4.44-.25-6.55-.71l-1.43-.63-.11.25c-13.12-3.56-22.79-15.57-22.79-29.8,0-17.03,13.85-30.88,30.88-30.88s30.88,13.85,30.88,30.88-13.85,30.88-30.88,30.88Z"/><path class="cls-2" d="m83.31,35.88C83.31,16.1,67.21,0,47.42,0S11.54,16.1,11.54,35.88s16.1,35.88,35.88,35.88c3.93,0,7.71-.64,11.25-1.82l36.33,53.72,4.14-2.8-35.76-52.86c11.79-5.89,19.91-18.07,19.91-32.12Zm-66.77,0c0-17.03,13.85-30.88,30.88-30.88s30.88,13.85,30.88,30.88-13.85,30.88-30.88,30.88-30.88-13.85-30.88-30.88Z"/><path class="cls-2" d="m236.67,203.91l-12.84,29.1c-5.75-3.91-12.68-6.2-20.14-6.2-10.02,0-19.08,4.13-25.6,10.77l-23.03-34.06-4.14,2.8,23.82,35.22c-4.35,5.94-6.92,13.25-6.92,21.16,0,19.79,16.1,35.88,35.88,35.88s35.88-16.1,35.88-35.88c0-10.48-4.51-19.92-11.7-26.48l13.36-30.28-4.57-2.02Zm-2.09,58.78c0,17.03-13.85,30.88-30.88,30.88s-30.88-13.85-30.88-30.88,13.85-30.88,30.88-30.88,30.88,13.85,30.88,30.88Z"/></g><line class="cls-1" x1="97.09" y1="122.27" x2="96.59" y2="121.53"/><g><path class="cls-3" d="m55.11,140.12c-2.72-2.79-5.95-4.99-9.6-6.52-3.65-1.53-7.69-2.31-12-2.31s-8.53.9-12.02,2.69c-2.53,1.29-4.69,2.81-6.44,4.52v-30.92l-.63-.25c-.43-.17-1.22-.43-2.37-.77-1.23-.37-2.6-.56-4.06-.56-2.44,0-4.38.58-5.78,1.71-1.46,1.19-2.2,2.99-2.2,5.35v46.82c0,5.67.79,10.67,2.35,14.88,1.57,4.24,3.8,7.82,6.64,10.66,2.84,2.84,6.25,5,10.15,6.41,3.87,1.41,8.16,2.12,12.76,2.12s8.91-.79,12.79-2.36c3.88-1.57,7.28-3.76,10.11-6.51,2.83-2.75,5.06-6.1,6.64-9.95,1.57-3.84,2.36-8.05,2.36-12.51s-.78-8.76-2.3-12.56c-1.53-3.8-3.68-7.15-6.39-9.94Zm-23.44,4.85c2.44,0,4.71.45,6.75,1.35,2.04.9,3.82,2.13,5.29,3.67,1.46,1.54,2.6,3.4,3.39,5.55.79,2.17,1.2,4.56,1.2,7.1s-.4,4.91-1.2,7.03c-.79,2.11-1.93,3.96-3.39,5.5-1.47,1.54-3.24,2.77-5.29,3.67-2.03.89-4.31,1.35-6.75,1.35s-4.73-.44-6.77-1.29c-2.04-.86-3.82-2.06-5.28-3.55-1.46-1.5-2.62-3.35-3.44-5.5-.83-2.16-1.25-4.58-1.25-7.2,0-2.46.42-4.81,1.25-6.97.83-2.16,1.98-4.06,3.41-5.64,1.42-1.56,3.18-2.81,5.21-3.71,2.04-.89,4.35-1.35,6.87-1.35Z"/><path class="cls-3" d="m127.77,133.45c-1.23-.37-2.64-.56-4.18-.56-2.36,0-4.26.55-5.65,1.64-1.47,1.15-2.22,2.97-2.22,5.42v25.3c0,4.91-1.15,8.67-3.41,11.18-2.23,2.48-5.76,3.73-10.47,3.73s-8.24-1.26-10.47-3.73c-2.26-2.5-3.41-6.27-3.41-11.18v-30.78l-.63-.25c-.43-.17-1.22-.43-2.37-.77-1.23-.37-2.6-.56-4.06-.56-2.43,0-4.37.55-5.77,1.64-1.47,1.15-2.22,2.97-2.22,5.42v28.16c0,4.01.72,7.67,2.15,10.88,1.43,3.21,3.44,5.97,5.98,8.19,2.53,2.22,5.62,3.92,9.17,5.06,3.52,1.13,7.44,1.71,11.64,1.71s8.12-.58,11.64-1.71c3.54-1.14,6.65-2.84,9.22-5.06,2.58-2.23,4.6-4.99,5.99-8.2,1.38-3.2,2.08-6.86,2.08-10.87v-33.65l-.63-.25c-.42-.17-1.22-.43-2.37-.77Z"/><path class="cls-3" d="m190.46,161.66c-3.63-2.72-8.76-4.54-15.24-5.4l-11.68-1.49c-2.97-.36-5.26-1.03-6.81-1.98-1.39-.85-2.04-2.02-2.04-3.67,0-1.48,0-5.98,12.28-5.98,3.12,0,5.9.24,8.27.72,2.38.48,4.45,1.05,6.15,1.67,1.68.62,3.02,1.25,3.99,1.85,1.26.79,1.69,1.15,1.83,1.29l.44.43.58-.19c.34-.11.75-.35,1.32-.78.52-.39,1.03-.9,1.5-1.5.46-.58.88-1.26,1.25-2,.41-.82.62-1.78.62-2.85,0-3.26-2.43-5.88-7.21-7.8-4.49-1.79-10.83-2.7-18.86-2.7-4.8,0-8.96.49-12.35,1.47-3.43.99-6.27,2.38-8.43,4.14-2.18,1.77-3.79,3.85-4.8,6.15-1.01,2.29-1.52,4.75-1.52,7.33,0,2.97.56,5.57,1.65,7.72,1.1,2.15,2.64,3.98,4.58,5.44,1.92,1.44,4.23,2.59,6.88,3.42,2.61.82,5.51,1.39,8.6,1.7l8.93,1.03c3.93.44,6.67,1.17,8.13,2.17,1.33.92,1.97,2.24,1.97,4.04,0,2.12-1,3.52-3.16,4.4-2.38.98-5.53,1.47-9.35,1.47-2.98,0-5.77-.23-8.3-.67-2.54-.45-4.83-1-6.79-1.63-1.97-.63-3.65-1.25-4.99-1.85-1.31-.58-2.21-1.05-2.68-1.39l-.91-.65-5.87,10.51.64.53c.53.44,1.54,1.03,3.17,1.84,1.56.78,3.63,1.59,6.15,2.4,2.5.81,5.49,1.53,8.89,2.15,3.4.62,7.24.93,11.4.93,8.73,0,15.54-1.8,20.23-5.35,4.78-3.62,7.21-8.51,7.21-14.53,0-5.42-1.91-9.6-5.67-12.42Z"/><path class="cls-3" d="m216.65,174.33c-1.35,0-2.65.26-3.87.76-1.22.51-2.29,1.21-3.19,2.11-.89.89-1.59,1.94-2.1,3.12-.51,1.19-.77,2.48-.77,3.83,0,2.7.98,5.08,2.92,7.05,1.94,1.98,4.3,2.99,7.01,2.99,1.36,0,2.66-.28,3.86-.84,1.17-.55,2.21-1.27,3.09-2.14s1.6-1.96,2.11-3.19c.51-1.22.76-2.53.76-3.87,0-2.71-.96-5.04-2.87-6.95s-4.24-2.87-6.95-2.87Z"/><path class="cls-3" d="m293.08,140.12c-2.72-2.79-5.95-4.99-9.6-6.52-3.65-1.53-7.69-2.31-12-2.31s-8.53.9-12.02,2.69c-2.53,1.29-4.69,2.81-6.44,4.52v-30.92l-.63-.25c-.43-.17-1.22-.43-2.37-.77-1.23-.37-2.6-.56-4.07-.56-2.44,0-4.38.58-5.78,1.71-1.46,1.19-2.2,2.99-2.2,5.35v46.82c0,5.67.79,10.67,2.35,14.88,1.57,4.24,3.8,7.82,6.64,10.66s6.25,5,10.15,6.41c3.87,1.41,8.16,2.12,12.76,2.12s8.91-.79,12.79-2.36c3.88-1.57,7.28-3.76,10.11-6.51,2.83-2.75,5.07-6.1,6.64-9.95,1.57-3.84,2.36-8.05,2.36-12.51s-.78-8.76-2.3-12.56c-1.53-3.8-3.68-7.15-6.39-9.94Zm-23.44,4.85c2.44,0,4.71.45,6.75,1.35,2.04.9,3.82,2.13,5.29,3.67,1.46,1.53,2.6,3.4,3.39,5.55.79,2.17,1.2,4.56,1.2,7.1s-.4,4.91-1.2,7.03c-.79,2.12-1.93,3.96-3.39,5.5-1.46,1.54-3.24,2.77-5.29,3.67-2.03.89-4.31,1.35-6.75,1.35s-4.73-.44-6.77-1.29c-2.04-.86-3.82-2.06-5.28-3.55-1.46-1.5-2.62-3.35-3.45-5.5-.83-2.16-1.25-4.58-1.25-7.2,0-2.46.42-4.81,1.25-6.97.83-2.16,1.97-4.06,3.41-5.64,1.42-1.56,3.18-2.81,5.21-3.71,2.04-.89,4.35-1.35,6.87-1.35Z"/><path class="cls-3" d="m332.02,170.15c6.6,0,12.14-.45,16.46-1.34,4.37-.9,7.91-2.17,10.51-3.79,2.68-1.66,4.58-3.69,5.65-6.04,1.05-2.3,1.58-4.88,1.58-7.68s-.57-5.33-1.7-7.75c-1.13-2.42-2.82-4.56-5.02-6.36-2.18-1.79-4.89-3.23-8.04-4.29-3.14-1.06-6.79-1.6-10.85-1.6-4.61,0-8.91.77-12.79,2.3-3.88,1.53-7.31,3.72-10.17,6.51-2.87,2.79-5.14,6.18-6.75,10.06-1.61,3.88-2.42,8.22-2.42,12.92,0,4.92.84,9.35,2.49,13.16,1.65,3.81,3.95,7.09,6.82,9.72,2.87,2.64,6.26,4.65,10.08,5.99,3.79,1.33,7.93,2,12.29,2,3.1,0,5.99-.24,8.59-.7,2.59-.46,4.91-1.01,6.87-1.63,1.99-.62,3.68-1.3,5.03-2.02,1.33-.71,2.29-1.24,2.92-1.64l.79-.49-5.69-10.84-.88.44c-.46.23-1.16.57-2.1,1.02-.92.44-2.04.89-3.33,1.33-1.29.44-2.76.81-4.38,1.11-1.61.29-3.4.44-5.32.44-5.63,0-9.99-1.14-12.96-3.4-2.64-2.01-4.3-4.5-5.04-7.59,1.06.05,2.07.08,3.04.11,1.34.04,2.78.06,4.32.06Zm8.36-26.78c3.23,0,5.96.68,8.11,2.02,2.03,1.27,3.02,3.12,3.02,5.68,0,1-.2,1.99-.61,2.93-.37.86-1.19,1.66-2.44,2.39-1.35.78-3.29,1.44-5.77,1.95-2.52.52-5.88.78-9.99.78h-4.81c-1.28,0-2.62-.02-3.98-.07.15-1.76.55-3.51,1.19-5.21.75-2.01,1.83-3.81,3.19-5.36,1.35-1.53,3.05-2.77,5.05-3.7,2-.93,4.36-1.39,7.02-1.39Z"/></g><g><path class="cls-3" d="m16.89,221.32c-.65-.31-1.42-.47-2.28-.47-1.7,0-2.94.61-3.73,1.82-.79-1.22-2.05-1.82-3.79-1.82-.88,0-1.65.16-2.31.47s-1.18.76-1.54,1.34c-.37.58-.55,1.27-.55,2.05v6.47h2.28v-5.69c0-.84.2-1.48.61-1.92.41-.44.98-.66,1.71-.66.79,0,1.39.24,1.79.73.41.49.61,1.18.61,2.07v5.47h2.28v-5.47c0-.89.21-1.59.63-2.07.42-.49,1.02-.73,1.81-.73.73,0,1.3.21,1.68.64.39.43.58,1.07.58,1.92v5.71h2.28v-6.49c0-.79-.18-1.47-.55-2.04-.37-.57-.88-1.02-1.53-1.33Z"/><path class="cls-3" d="m19.1,231.31h-2.53v-5.84c0-.82-.18-1.44-.55-1.84-.36-.4-.9-.6-1.59-.6-.75,0-1.32.23-1.72.69-.4.46-.6,1.13-.6,1.99v5.6h-2.53v-5.6c0-.86-.2-1.53-.58-1.99-.38-.46-.95-.69-1.7-.69-.69,0-1.24.21-1.62.62-.38.42-.58,1.03-.58,1.84v5.82h-2.53v-6.6c0-.81.19-1.52.57-2.12.38-.6.92-1.07,1.59-1.39.68-.32,1.47-.48,2.37-.48,1.7,0,2.97.58,3.79,1.73.81-1.15,2.07-1.73,3.73-1.73.88,0,1.67.16,2.34.48h0c.67.32,1.2.79,1.58,1.38.38.59.57,1.3.57,2.11v6.62Zm-2.28-.25h2.03v-6.37c0-.76-.18-1.42-.53-1.98-.35-.55-.85-.99-1.48-1.29h0c-.64-.3-1.39-.46-2.23-.46-1.64,0-2.86.59-3.62,1.77l-.1.16-.1-.16c-.76-1.17-2-1.77-3.68-1.77-.86,0-1.62.15-2.26.46-.64.3-1.14.74-1.49,1.3-.35.56-.53,1.23-.53,1.99v6.35h2.03v-5.57c0-.87.22-1.55.64-2.01.43-.46,1.04-.7,1.81-.7.82,0,1.46.26,1.89.78.42.51.64,1.23.64,2.15v5.35h2.03v-5.35c0-.92.22-1.65.66-2.16.44-.51,1.09-.77,1.91-.77.77,0,1.37.23,1.78.68.41.45.61,1.12.61,2.01v5.59Z"/></g><g><path class="cls-3" d="m24.82,227.3c2.02,0,3.49-.26,4.42-.78.93-.52,1.39-1.3,1.39-2.34s-.4-1.84-1.19-2.43-1.83-.89-3.12-.89c-1.06,0-1.99.23-2.82.69-.82.46-1.47,1.09-1.93,1.9-.47.81-.7,1.74-.7,2.8s.23,1.95.68,2.74c.45.78,1.08,1.39,1.89,1.83.81.44,1.74.66,2.8.66.48,0,.98-.04,1.48-.13s.98-.21,1.42-.37.81-.33,1.1-.52l-.84-1.6c-.82.47-1.72.7-2.73.7-.92,0-1.69-.21-2.29-.62s-.97-.97-1.07-1.66c.27.01.54.02.81.03s.5,0,.69,0Zm-1.6-1.6c.03-.92.32-1.67.89-2.23.57-.57,1.29-.85,2.17-.85.63,0,1.14.14,1.53.41.39.27.59.64.59,1.11,0,1.06-1.16,1.58-3.47,1.58h-1c-.25,0-.49,0-.72-.02Z"/><path class="cls-3" d="m26.25,231.59c-1.07,0-2.03-.23-2.86-.68-.82-.45-1.48-1.08-1.94-1.88-.46-.8-.7-1.74-.7-2.8s.24-2.03.72-2.86c.48-.82,1.14-1.48,1.98-1.95.84-.47,1.8-.71,2.88-.71,1.3,0,2.38.31,3.19.92.82.62,1.24,1.47,1.24,2.53s-.49,1.91-1.46,2.45c-.94.53-2.45.8-4.48.8-.19,0-.42,0-.69,0-.22,0-.44-.01-.66-.02.13.59.45,1.06.99,1.43.58.4,1.33.6,2.22.6.98,0,1.87-.23,2.66-.68l.11-.06.96,1.82-.1.06c-.3.19-.68.37-1.13.53-.45.16-.93.29-1.44.38-.51.09-1.02.13-1.5.13Zm.08-10.62c-1.03,0-1.96.23-2.75.68-.8.45-1.43,1.07-1.89,1.86-.45.79-.69,1.71-.69,2.73s.22,1.91.66,2.67c.44.76,1.06,1.36,1.85,1.79.78.43,1.71.65,2.74.65.47,0,.97-.04,1.46-.13.5-.08.97-.21,1.4-.37.38-.14.71-.29.98-.45l-.73-1.39c-.8.43-1.7.65-2.67.65s-1.74-.22-2.36-.64c-.64-.43-1.01-1.02-1.13-1.75l-.02-.15h.15c.27.02.54.03.81.04.27,0,.5,0,.69,0,1.99,0,3.45-.26,4.36-.77.89-.5,1.33-1.23,1.33-2.24s-.37-1.76-1.14-2.33c-.77-.57-1.79-.87-3.04-.87Zm-1.38,4.87h-1c-.26,0-.5,0-.73-.02h-.12s0-.13,0-.13c.03-.95.34-1.73.93-2.32.59-.59,1.35-.89,2.26-.89.65,0,1.19.15,1.6.43.43.3.65.71.65,1.21,0,1.13-1.21,1.71-3.59,1.71Zm-1.59-.26c.19,0,.39.01.59.01h1c2.22,0,3.34-.49,3.34-1.46,0-.43-.18-.76-.54-1.01-.37-.26-.86-.39-1.46-.39-.84,0-1.54.27-2.09.82s-.8,1.2-.85,2.03Z"/></g><g><path class="cls-3" d="m35.86,227.3c2.02,0,3.49-.26,4.42-.78.93-.52,1.39-1.3,1.39-2.34s-.4-1.84-1.19-2.43-1.83-.89-3.12-.89c-1.06,0-1.99.23-2.82.69-.82.46-1.47,1.09-1.93,1.9-.47.81-.7,1.74-.7,2.8s.23,1.95.68,2.74c.45.78,1.08,1.39,1.89,1.83.81.44,1.74.66,2.8.66.48,0,.98-.04,1.48-.13s.98-.21,1.42-.37.81-.33,1.1-.52l-.84-1.6c-.82.47-1.72.7-2.73.7-.92,0-1.69-.21-2.29-.62s-.97-.97-1.07-1.66c.27.01.54.02.81.03s.5,0,.69,0Zm-1.6-1.6c.03-.92.32-1.67.89-2.23.57-.57,1.29-.85,2.17-.85.63,0,1.14.14,1.53.41.39.27.59.64.59,1.11,0,1.06-1.16,1.58-3.47,1.58h-1c-.25,0-.49,0-.72-.02Z"/><path class="cls-3" d="m37.29,231.59c-1.07,0-2.03-.23-2.86-.68-.82-.45-1.48-1.08-1.94-1.88-.46-.8-.7-1.74-.7-2.8s.24-2.03.72-2.86c.48-.82,1.14-1.48,1.98-1.95.84-.47,1.8-.71,2.88-.71,1.3,0,2.38.31,3.19.92.82.62,1.24,1.47,1.24,2.53s-.49,1.91-1.46,2.45c-.94.53-2.45.8-4.48.8-.19,0-.42,0-.69,0-.22,0-.44-.01-.66-.02.13.59.45,1.06.99,1.43.58.4,1.33.6,2.22.6.98,0,1.87-.23,2.66-.68l.11-.06.96,1.82-.1.06c-.3.19-.68.37-1.13.53-.45.16-.93.29-1.44.38-.51.09-1.02.13-1.5.13Zm.08-10.62c-1.03,0-1.96.23-2.75.68-.8.45-1.43,1.07-1.89,1.86-.45.79-.69,1.71-.69,2.73s.22,1.91.66,2.67c.44.76,1.06,1.36,1.85,1.79.78.43,1.71.65,2.74.65.47,0,.97-.04,1.46-.13.5-.08.97-.21,1.4-.37.38-.14.71-.29.98-.45l-.73-1.39c-.8.43-1.7.65-2.67.65s-1.74-.22-2.36-.64c-.64-.43-1.01-1.02-1.13-1.75l-.02-.15h.15c.27.02.54.03.81.04.27,0,.5,0,.69,0,1.99,0,3.45-.26,4.36-.77.89-.5,1.33-1.23,1.33-2.24s-.37-1.76-1.14-2.33c-.77-.57-1.79-.87-3.04-.87Zm-1.38,4.87h-1c-.26,0-.5,0-.73-.02h-.12s0-.13,0-.13c.03-.95.34-1.73.93-2.32.59-.59,1.35-.89,2.26-.89.65,0,1.19.15,1.6.43.43.3.65.71.65,1.21,0,1.13-1.21,1.71-3.59,1.71Zm-1.59-.26c.19,0,.39.01.59.01h1c2.22,0,3.34-.49,3.34-1.46,0-.43-.18-.76-.54-1.01-.37-.26-.86-.39-1.46-.39-.84,0-1.54.27-2.09.82s-.8,1.2-.85,2.03Z"/></g><g><path class="cls-3" d="m48.4,229.3c-.34.09-.67.14-.99.14-.57,0-1.01-.15-1.3-.46-.29-.31-.44-.74-.44-1.3v-4.45h3.85c.17-.31.26-.66.26-1.04,0-.71-.4-1.06-1.2-1.06h-2.91v-2.62c-.12-.07-.28-.12-.48-.16s-.39-.06-.58-.06c-.36,0-.65.09-.88.27-.23.18-.34.44-.34.79v8.82c0,1.02.32,1.82.97,2.42.65.59,1.51.89,2.59.89.63,0,1.24-.1,1.83-.29.59-.19,1.06-.44,1.41-.73l-.92-1.52c-.24.16-.53.29-.87.38Z"/><path class="cls-3" d="m46.94,231.59c-1.11,0-2.01-.31-2.68-.92-.67-.62-1.01-1.46-1.01-2.51v-8.82c0-.39.13-.69.39-.89.37-.29.93-.36,1.56-.24.21.04.39.1.52.17l.06.04v2.57h2.78c1.1,0,1.33.65,1.33,1.19,0,.41-.09.78-.28,1.1l-.04.06h-3.8v4.32c0,.53.14.93.41,1.22.27.28.68.42,1.21.42.31,0,.63-.05.96-.14h0c.32-.09.6-.21.83-.36l.11-.07,1.04,1.73-.08.07c-.36.3-.85.56-1.45.75-.6.2-1.23.3-1.87.3Zm-2.34-13.19c-.33,0-.6.08-.8.24-.2.16-.29.38-.29.69v8.82c0,.98.31,1.76.93,2.32.62.57,1.47.86,2.51.86.61,0,1.22-.1,1.8-.28.53-.17.96-.39,1.29-.64l-.8-1.32c-.23.14-.5.25-.8.33-.35.1-.69.14-1.02.14-.61,0-1.08-.17-1.39-.5-.32-.33-.48-.8-.48-1.39v-4.57h3.9c.14-.27.21-.58.21-.92,0-.64-.34-.94-1.08-.94h-3.03v-2.67c-.1-.05-.23-.08-.38-.11-.19-.04-.38-.06-.56-.06Z"/></g><g><path class="cls-3" d="m70.61,221.32c-.65-.31-1.42-.47-2.28-.47-1.7,0-2.94.61-3.73,1.82-.79-1.22-2.05-1.82-3.79-1.82-.88,0-1.65.16-2.31.47s-1.18.76-1.54,1.34c-.37.58-.55,1.27-.55,2.05v6.47h2.28v-5.69c0-.84.2-1.48.61-1.92.41-.44.98-.66,1.71-.66.79,0,1.39.24,1.79.73.41.49.61,1.18.61,2.07v5.47h2.28v-5.47c0-.89.21-1.59.63-2.07.42-.49,1.02-.73,1.81-.73.73,0,1.3.21,1.68.64.39.43.58,1.07.58,1.92v5.71h2.28v-6.49c0-.79-.18-1.47-.55-2.04-.37-.57-.88-1.02-1.53-1.33Z"/><path class="cls-3" d="m72.82,231.31h-2.53v-5.84c0-.82-.18-1.44-.55-1.84-.36-.4-.9-.6-1.59-.6-.75,0-1.32.23-1.72.69-.4.46-.6,1.13-.6,1.99v5.6h-2.53v-5.6c0-.86-.2-1.53-.58-1.99-.38-.46-.95-.69-1.7-.69-.69,0-1.24.21-1.62.62-.38.42-.58,1.03-.58,1.84v5.82h-2.53v-6.6c0-.81.19-1.52.57-2.12.38-.6.92-1.07,1.59-1.39.68-.32,1.47-.48,2.37-.48,1.7,0,2.97.58,3.79,1.73.81-1.15,2.07-1.73,3.73-1.73.88,0,1.67.16,2.34.48h0c.67.32,1.2.79,1.58,1.38.38.59.57,1.3.57,2.11v6.62Zm-2.28-.25h2.03v-6.37c0-.76-.18-1.42-.53-1.98-.35-.55-.85-.99-1.48-1.29h0c-.64-.3-1.39-.46-2.23-.46-1.64,0-2.86.59-3.62,1.77l-.1.16-.1-.16c-.76-1.17-2-1.77-3.68-1.77-.86,0-1.62.15-2.26.46-.64.3-1.14.74-1.49,1.3-.35.56-.53,1.23-.53,1.99v6.35h2.03v-5.57c0-.87.22-1.55.64-2.01.43-.46,1.04-.7,1.81-.7.82,0,1.46.26,1.89.78.42.51.64,1.23.64,2.15v5.35h2.03v-5.35c0-.92.22-1.65.66-2.16.44-.51,1.09-.77,1.91-.77.77,0,1.37.23,1.78.68.41.45.61,1.12.61,2.01v5.59Z"/></g><g><path class="cls-3" d="m82.94,221.55c-.84-.47-1.77-.7-2.82-.7s-1.98.23-2.81.7c-.83.47-1.49,1.1-1.97,1.9s-.73,1.7-.73,2.71.24,1.9.73,2.71c.49.8,1.15,1.44,1.97,1.9.83.47,1.76.7,2.81.7s1.98-.23,2.82-.7c.83-.47,1.49-1.1,1.97-1.9.48-.8.72-1.7.72-2.71s-.24-1.9-.72-2.71-1.14-1.44-1.97-1.9Zm-.09,6.32c-.27.5-.64.89-1.11,1.17-.47.28-1.01.42-1.61.42s-1.14-.14-1.61-.42c-.47-.28-.85-.67-1.11-1.17-.27-.5-.4-1.07-.4-1.71s.13-1.21.4-1.71c.27-.5.64-.89,1.11-1.17.47-.28,1.01-.42,1.61-.42s1.14.14,1.61.42c.47.28.84.67,1.11,1.17.27.5.4,1.07.4,1.71s-.13,1.21-.4,1.71Z"/><path class="cls-3" d="m80.13,231.59c-1.06,0-2.02-.24-2.87-.72-.84-.48-1.52-1.13-2.02-1.95-.5-.82-.75-1.75-.75-2.77s.25-1.95.75-2.77c.5-.82,1.18-1.47,2.02-1.95.84-.48,1.81-.72,2.87-.72s2.03.24,2.88.72h0c.85.48,1.53,1.13,2.02,1.95.49.82.74,1.75.74,2.77s-.25,1.95-.74,2.77c-.49.82-1.17,1.47-2.02,1.95-.85.48-1.82.72-2.88.72Zm0-10.62c-1.02,0-1.94.23-2.74.68-.81.46-1.46,1.08-1.93,1.86-.47.78-.71,1.67-.71,2.64s.24,1.86.71,2.64c.47.78,1.12,1.41,1.93,1.86.8.45,1.73.68,2.74.68s1.94-.23,2.75-.69c.81-.46,1.46-1.08,1.93-1.86.47-.78.7-1.67.7-2.64s-.24-1.86-.7-2.64c-.47-.78-1.11-1.4-1.93-1.86h0c-.81-.46-1.74-.69-2.75-.69Zm0,8.62c-.62,0-1.19-.15-1.68-.44-.49-.29-.88-.7-1.16-1.22-.28-.52-.42-1.11-.42-1.77s.14-1.26.42-1.77c.28-.52.67-.93,1.16-1.22.49-.29,1.05-.44,1.68-.44s1.19.15,1.68.44c.49.29.88.7,1.16,1.22.28.52.42,1.11.42,1.77s-.14,1.26-.42,1.77h0c-.28.52-.67.93-1.16,1.22-.49.29-1.05.44-1.68.44Zm0-6.61c-.58,0-1.1.14-1.55.4-.45.27-.81.65-1.07,1.12-.26.48-.39,1.04-.39,1.65s.13,1.17.39,1.66c.25.48.61.86,1.07,1.12.45.27.97.4,1.55.4s1.1-.14,1.55-.4c.45-.27.81-.65,1.07-1.12h0c.26-.48.39-1.04.39-1.66s-.13-1.17-.39-1.65c-.26-.48-.61-.86-1.07-1.12s-.97-.4-1.55-.4Z"/></g><g><path class="cls-3" d="m95.64,221.54c-.77-.46-1.64-.69-2.6-.69-.73,0-1.39.14-1.97.41-.58.27-1.06.65-1.43,1.13v-5.75c-.12-.07-.28-.12-.48-.16-.2-.04-.39-.06-.58-.06-.36,0-.65.09-.88.27-.23.18-.34.44-.34.79v8.2c0,1.2.22,2.24.65,3.11.43.87,1.04,1.53,1.83,1.99.79.46,1.72.69,2.81.69s2.06-.23,2.89-.68c.83-.45,1.48-1.08,1.94-1.88.47-.8.7-1.72.7-2.75s-.23-1.94-.68-2.73-1.07-1.42-1.84-1.88Zm-.7,6.96c-.57.6-1.32.9-2.22.9s-1.65-.3-2.23-.9c-.58-.6-.87-1.39-.87-2.36s.29-1.76.87-2.36c.58-.6,1.33-.9,2.23-.9s1.65.3,2.22.9c.57.6.86,1.39.86,2.36s-.29,1.76-.86,2.36Z"/><path class="cls-3" d="m92.63,231.59c-1.1,0-2.06-.24-2.87-.71-.81-.47-1.44-1.16-1.88-2.04-.44-.88-.66-1.94-.66-3.16v-8.2c0-.39.13-.69.39-.89.25-.2.57-.3.96-.3.2,0,.4.02.61.06.21.04.39.1.52.17l.06.04v5.49c.35-.37.77-.68,1.25-.91.6-.28,1.28-.42,2.03-.42.98,0,1.88.24,2.67.71.79.47,1.43,1.12,1.89,1.93.46.81.7,1.75.7,2.8s-.24,1.99-.72,2.81c-.48.82-1.15,1.47-1.99,1.93-.84.46-1.83.7-2.95.7Zm-4.07-15.05c-.33,0-.6.08-.8.24-.2.16-.29.38-.29.69v8.2c0,1.18.21,2.2.64,3.05s1.02,1.49,1.78,1.94c.77.45,1.69.67,2.74.67s2.02-.22,2.83-.67c.8-.44,1.44-1.06,1.9-1.84s.68-1.68.68-2.68-.22-1.9-.66-2.67c-.44-.77-1.05-1.39-1.8-1.84-.75-.45-1.61-.67-2.54-.67-.71,0-1.36.13-1.92.4s-1.03.63-1.39,1.1l-.22.29v-6.04c-.1-.05-.23-.08-.38-.11-.19-.04-.38-.06-.56-.06Zm4.15,12.99c-.94,0-1.72-.32-2.32-.94-.6-.62-.91-1.45-.91-2.45s.31-1.83.91-2.45c.6-.62,1.38-.94,2.32-.94s1.72.32,2.31.94c.59.62.9,1.45.9,2.45s-.3,1.83-.9,2.45h0c-.6.62-1.38.94-2.31.94Zm0-6.53c-.87,0-1.59.29-2.14.86-.56.57-.84,1.34-.84,2.28s.28,1.7.84,2.28c.55.57,1.28.86,2.14.86s1.59-.29,2.13-.86h0c.55-.57.83-1.34.83-2.28s-.28-1.7-.83-2.28c-.55-.57-1.27-.86-2.13-.86Z"/></g><path class="cls-4" d="m101.35,216.62c-.4,0-.73.13-.99.4-.26.27-.39.6-.39,1s.13.74.39,1c.26.27.59.4.99.4s.73-.13.99-.4c.26-.27.39-.6.39-1s-.13-.73-.39-1c-.26-.27-.59-.4-.99-.4Z"/><g><path class="cls-3" d="m101.43,221.13c-.36,0-.65.09-.88.27s-.34.44-.34.79v9h2.28v-9.84c-.12-.07-.28-.12-.48-.16-.2-.04-.39-.06-.58-.06Z"/><path class="cls-3" d="m102.62,231.31h-2.53v-9.12c0-.39.13-.69.39-.89.25-.2.57-.3.96-.3.2,0,.4.02.61.06.22.04.39.1.52.17l.06.04v10.04Zm-2.28-.25h2.03v-9.64c-.1-.05-.23-.08-.38-.11-.19-.04-.38-.06-.56-.06-.33,0-.6.08-.8.24-.2.16-.29.38-.29.69v8.87Z"/></g><g><path class="cls-3" d="m106.16,216.42c-.36,0-.65.09-.88.27-.23.18-.34.44-.34.79v13.71h2.28v-14.55c-.12-.07-.28-.12-.48-.16s-.39-.06-.58-.06Z"/><path class="cls-3" d="m107.35,231.31h-2.53v-13.83c0-.39.13-.69.39-.89.25-.2.57-.3.96-.3.2,0,.4.02.61.06.21.04.39.1.52.17l.06.04v14.75Zm-2.28-.25h2.03v-14.35c-.1-.05-.23-.08-.38-.11-.19-.04-.38-.06-.56-.06-.33,0-.6.08-.8.24-.2.16-.29.38-.29.69v13.58Z"/></g><path class="cls-4" d="m110.81,216.62c-.4,0-.73.13-.99.4-.26.27-.39.6-.39,1s.13.74.39,1c.26.27.59.4.99.4s.73-.13.99-.4c.26-.27.39-.6.39-1s-.13-.73-.39-1c-.26-.27-.59-.4-.99-.4Z"/><g><path class="cls-3" d="m110.89,221.13c-.36,0-.65.09-.88.27s-.34.44-.34.79v9h2.28v-9.84c-.12-.07-.28-.12-.48-.16-.2-.04-.39-.06-.58-.06Z"/><path class="cls-3" d="m112.08,231.31h-2.53v-9.12c0-.39.13-.69.39-.89.25-.2.57-.3.96-.3.2,0,.4.02.61.06.22.04.39.1.52.17l.06.04v10.04Zm-2.28-.25h2.03v-9.64c-.1-.05-.23-.08-.38-.11-.19-.04-.38-.06-.56-.06-.33,0-.6.08-.8.24-.2.16-.29.38-.29.69v8.87Z"/></g><g><path class="cls-3" d="m119.42,229.3c-.34.09-.67.14-.99.14-.57,0-1.01-.15-1.3-.46-.29-.31-.44-.74-.44-1.3v-4.45h3.85c.17-.31.26-.66.26-1.04,0-.71-.4-1.06-1.2-1.06h-2.91v-2.62c-.12-.07-.28-.12-.48-.16s-.39-.06-.58-.06c-.36,0-.65.09-.88.27-.23.18-.34.44-.34.79v8.82c0,1.02.32,1.82.97,2.42.65.59,1.51.89,2.59.89.63,0,1.24-.1,1.83-.29.59-.19,1.06-.44,1.41-.73l-.92-1.52c-.24.16-.53.29-.87.38Z"/><path class="cls-3" d="m117.96,231.59c-1.11,0-2.01-.31-2.68-.92-.67-.62-1.01-1.46-1.01-2.51v-8.82c0-.39.13-.69.39-.89.37-.29.94-.36,1.56-.24.21.04.39.1.52.17l.06.04v2.57h2.78c1.1,0,1.33.65,1.33,1.19,0,.41-.09.78-.28,1.1l-.04.06h-3.8v4.32c0,.53.14.93.41,1.22.27.28.68.42,1.21.42.31,0,.63-.05.96-.14h0c.32-.09.6-.21.83-.36l.11-.07,1.04,1.73-.08.07c-.36.3-.85.56-1.45.75-.6.2-1.23.3-1.87.3Zm-2.34-13.19c-.33,0-.6.08-.8.24-.2.16-.29.38-.29.69v8.82c0,.98.31,1.76.93,2.32.62.57,1.47.86,2.51.86.61,0,1.22-.1,1.8-.28.53-.17.96-.39,1.29-.64l-.8-1.32c-.23.14-.5.25-.8.33-.35.1-.69.14-1.02.14-.61,0-1.08-.17-1.39-.5-.32-.33-.48-.8-.48-1.39v-4.57h3.9c.14-.27.21-.58.21-.92,0-.64-.34-.94-1.08-.94h-3.03v-2.67c-.1-.05-.23-.08-.38-.11-.19-.04-.38-.06-.56-.06Z"/></g><g><path class="cls-3" d="m131.67,221.19c-.2-.04-.39-.06-.58-.06-.36,0-.65.09-.87.27-.22.18-.33.44-.33.79v4.29c0,.89-.22,1.59-.67,2.07-.45.49-1.1.73-1.95.73s-1.45-.22-1.9-.67c-.45-.45-.68-1.08-.68-1.91v-5.35c-.13-.07-.3-.12-.5-.16-.2-.04-.39-.06-.58-.06-.36,0-.65.09-.87.27-.22.18-.33.44-.33.79v4.97c0,.83.19,1.55.56,2.17s.9,1.08,1.56,1.41c.67.33,1.44.49,2.3.49.75,0,1.39-.12,1.93-.35.54-.23.94-.54,1.19-.93v.56c0,1.06-.29,1.83-.86,2.31-.57.49-1.4.73-2.48.73-.36,0-.75-.02-1.15-.07-.41-.05-.8-.11-1.17-.2s-.68-.18-.92-.29l-.58,1.7c.52.2,1.16.37,1.9.5.75.13,1.47.2,2.16.2,1.71,0,3.03-.44,3.95-1.33.92-.89,1.38-2.2,1.38-3.94v-8.78c-.13-.07-.3-.12-.5-.16Z"/><path class="cls-3" d="m126.84,235.52c-.7,0-1.44-.07-2.19-.2-.75-.13-1.4-.3-1.93-.51l-.11-.04.66-1.95.12.06c.23.1.54.2.9.28.36.08.75.15,1.16.2,1.6.18,2.81-.01,3.54-.63.54-.46.82-1.21.82-2.22v-.2c-.26.27-.6.5-1.02.69-.56.24-1.22.36-1.98.36-.89,0-1.68-.17-2.36-.5-.69-.34-1.23-.83-1.62-1.46-.38-.63-.58-1.38-.58-2.23v-4.97c0-.38.13-.68.38-.89.24-.2.56-.3.95-.3.2,0,.4.02.61.06.21.04.39.1.53.17l.07.03v5.43c0,.79.22,1.4.64,1.82.43.42,1.04.64,1.82.64s1.44-.23,1.86-.69c.42-.46.64-1.13.64-1.99v-4.29c0-.38.13-.68.38-.89.24-.2.56-.3.95-.3.2,0,.4.02.61.06.22.04.39.1.53.17l.07.03v8.85c0,1.76-.48,3.12-1.42,4.03-.94.91-2.3,1.37-4.03,1.37Zm-3.91-.9c.49.18,1.08.33,1.77.45.74.13,1.46.2,2.14.2,1.67,0,2.97-.44,3.86-1.3.89-.86,1.34-2.16,1.34-3.85v-8.7c-.11-.05-.24-.09-.4-.12h0c-.19-.04-.38-.06-.56-.06-.33,0-.6.08-.79.24-.19.16-.28.38-.28.7v4.29c0,.92-.24,1.65-.7,2.16-.47.51-1.16.77-2.05.77s-1.52-.24-1.99-.71c-.48-.47-.72-1.14-.72-2v-5.27c-.11-.05-.24-.09-.4-.12-.19-.04-.38-.06-.56-.06-.33,0-.6.08-.79.24-.19.16-.28.38-.28.7v4.97c0,.8.18,1.51.54,2.1.36.59.87,1.05,1.51,1.37.65.32,1.4.48,2.25.48.73,0,1.36-.11,1.88-.34.52-.22.9-.52,1.14-.88l.23-.35v.98c0,1.09-.3,1.9-.91,2.41-.79.67-2.05.88-3.73.69-.42-.05-.81-.12-1.19-.2-.32-.07-.59-.16-.82-.25l-.5,1.46Z"/></g></svg>